<svg width="8" height="18" viewBox="0 0 8 18" fill="none" xmlns="http://www.w3.org/2000/svg">
<path d="M4.2071 1.8755C4.21403 1.76793 4.24212 1.62226 4.29136 1.43849C4.40261 1.02331 4.66353 0.702944 5.07413 0.477394C5.48654 0.245038 5.91396 0.188131 6.35636 0.306675C6.79877 0.425218 7.14047 0.688207 7.38146 1.09564C7.62427 1.49627 7.68275 1.9314 7.55691 2.40104C7.52226 2.53036 7.48105 2.64333 7.43328 2.73995L3.44952 13.0745L2.48984 12.8174L4.2071 1.8755ZM0.509285 15.6351C0.704425 14.9068 1.167 14.4873 1.897 14.3765C2.11626 14.3477 2.3416 14.3643 2.57302 14.4263C3.03584 14.5503 3.38186 14.8108 3.61105 15.2078C3.84025 15.6048 3.89193 16.0381 3.76609 16.5077C3.64208 16.9706 3.38158 17.3166 2.9846 17.5458C2.59625 17.77 2.16726 17.8192 1.69762 17.6933C1.23479 17.5693 0.887871 17.3122 0.65685 16.9221C0.434458 16.5269 0.38527 16.0979 0.509285 15.6351Z" fill="#ffffff"/>
</svg>
