<svg width="1746" height="332" viewBox="0 0 1746 332" fill="none" xmlns="http://www.w3.org/2000/svg">
<g clip-path="url(#clip0_262_2016)">
<path d="M80.2219 326.87H0.421875V26.9896H177.662V92.0896H80.2219V149.21H170.102V214.31H80.2219V326.87Z" fill="#ffffff"/>
<path d="M323.008 90.4096C352.408 90.4096 375.368 97.6896 391.888 112.25C408.408 126.81 416.668 147.53 416.668 174.41V326.87H361.228L345.688 296.21H344.008C337.568 304.33 330.848 311.05 323.848 316.37C317.128 321.41 309.288 325.05 300.328 327.29C291.368 329.81 280.448 331.07 267.568 331.07C254.128 331.07 242.088 328.41 231.448 323.09C220.808 317.49 212.408 309.23 206.248 298.31C200.088 287.11 197.008 272.97 197.008 255.89C197.008 230.97 205.548 212.49 222.628 200.45C239.988 188.41 265.048 181.69 297.808 180.29L336.448 179.03V175.67C336.448 165.31 333.928 158.03 328.888 153.83C323.848 149.35 316.988 147.11 308.308 147.11C299.068 147.11 288.848 148.79 277.648 152.15C266.448 155.23 255.108 159.29 243.628 164.33L220.528 111.41C233.968 104.41 249.088 99.2296 265.888 95.8696C282.968 92.2296 302.008 90.4096 323.008 90.4096ZM318.388 223.97C303.828 224.53 293.468 227.19 287.308 231.95C281.428 236.43 278.488 242.87 278.488 251.27C278.488 259.11 280.588 264.99 284.788 268.91C288.988 272.55 294.588 274.37 301.588 274.37C311.388 274.37 319.648 271.29 326.368 265.13C333.368 258.97 336.868 250.99 336.868 241.19V223.13L318.388 223.97Z" fill="#ffffff"/>
<path d="M564.528 331.07C541.008 331.07 520.568 326.87 503.208 318.47C485.848 310.07 472.408 297.05 462.888 279.41C453.368 261.77 448.608 239.23 448.608 211.79C448.608 183.51 453.928 160.55 464.568 142.91C475.208 124.99 489.628 111.83 507.828 103.43C526.308 94.7496 547.308 90.4096 570.828 90.4096C585.108 90.4096 598.548 91.9496 611.148 95.0296C624.028 98.1096 635.928 102.45 646.848 108.05L623.328 167.27C613.808 163.07 604.848 159.71 596.448 157.19C588.328 154.67 579.788 153.41 570.828 153.41C562.708 153.41 555.568 155.51 549.408 159.71C543.248 163.91 538.488 170.35 535.128 179.03C531.768 187.43 530.088 198.21 530.088 211.37C530.088 224.81 531.768 235.59 535.128 243.71C538.768 251.83 543.668 257.85 549.828 261.77C555.988 265.41 563.128 267.23 571.248 267.23C582.728 267.23 594.208 265.41 605.688 261.77C617.448 258.13 628.508 253.09 638.868 246.65V310.49C629.348 316.65 618.568 321.69 606.528 325.61C594.488 329.25 580.488 331.07 564.528 331.07Z" fill="#ffffff"/>
<path d="M786.314 267.65C793.594 267.65 800.174 266.95 806.054 265.55C812.214 263.87 818.514 261.91 824.954 259.67V318.05C816.274 321.69 807.034 324.77 797.234 327.29C787.434 329.81 774.974 331.07 759.854 331.07C744.734 331.07 731.434 328.69 719.954 323.93C708.754 319.17 699.934 311.05 693.494 299.57C687.054 287.81 683.834 271.43 683.834 250.43V154.67H655.694V121.91L691.394 96.7096L711.974 47.9896H764.474V94.6096H821.594V154.67H764.474V244.97C764.474 252.53 766.294 258.27 769.934 262.19C773.854 265.83 779.314 267.65 786.314 267.65Z" fill="#ffffff"/>
<path d="M1074.84 210.11C1074.84 229.43 1072.18 246.65 1066.86 261.77C1061.54 276.89 1053.84 289.63 1043.76 299.99C1033.68 310.07 1021.5 317.77 1007.22 323.09C992.938 328.41 976.698 331.07 958.498 331.07C941.698 331.07 926.158 328.41 911.878 323.09C897.878 317.77 885.698 310.07 875.338 299.99C865.258 289.63 857.278 276.89 851.398 261.77C845.798 246.65 842.998 229.43 842.998 210.11C842.998 184.35 847.618 162.65 856.858 145.01C866.378 127.09 879.818 113.51 897.178 104.27C914.538 95.0296 935.398 90.4096 959.758 90.4096C982.158 90.4096 1001.9 95.0296 1018.98 104.27C1036.34 113.51 1049.92 127.09 1059.72 145.01C1069.8 162.65 1074.84 184.35 1074.84 210.11ZM924.478 210.11C924.478 223.27 925.598 234.47 927.838 243.71C930.078 252.95 933.718 259.95 938.758 264.71C944.078 269.19 950.938 271.43 959.338 271.43C967.738 271.43 974.318 269.19 979.078 264.71C984.118 259.95 987.758 252.95 989.998 243.71C992.238 234.47 993.358 223.27 993.358 210.11C993.358 196.95 992.238 185.89 989.998 176.93C987.758 167.97 984.118 161.25 979.078 156.77C974.038 152.29 967.318 150.05 958.918 150.05C946.878 150.05 938.058 155.09 932.458 165.17C927.138 175.25 924.478 190.23 924.478 210.11Z" fill="#ffffff"/>
<path d="M1248.18 90.4096C1252.66 90.4096 1257.28 90.6896 1262.04 91.2496C1266.8 91.8096 1270.3 92.3696 1272.54 92.9296L1265.4 168.53C1262.6 167.97 1259.1 167.41 1254.9 166.85C1250.98 166.29 1245.38 166.01 1238.1 166.01C1233.06 166.01 1227.6 166.57 1221.72 167.69C1216.12 168.53 1210.66 170.49 1205.34 173.57C1200.3 176.65 1196.1 181.27 1192.74 187.43C1189.66 193.59 1188.12 201.99 1188.12 212.63V326.87H1107.9V94.6096H1167.54L1180.14 131.57H1183.92C1188.12 124.01 1193.58 117.15 1200.3 110.99C1207.02 104.55 1214.44 99.5096 1222.56 95.8696C1230.96 92.2296 1239.5 90.4096 1248.18 90.4096Z" fill="#ffffff"/>
<path d="M1372.81 94.6096V326.87H1292.59V94.6096H1372.81ZM1332.91 0.949585C1344.39 0.949585 1354.33 3.32958 1362.73 8.08957C1371.41 12.8496 1375.75 22.3696 1375.75 36.6496C1375.75 50.3696 1371.41 59.7496 1362.73 64.7896C1354.33 69.5496 1344.39 71.9296 1332.91 71.9296C1321.15 71.9296 1311.07 69.5496 1302.67 64.7896C1294.55 59.7496 1290.49 50.3696 1290.49 36.6496C1290.49 22.3696 1294.55 12.8496 1302.67 8.08957C1311.07 3.32958 1321.15 0.949585 1332.91 0.949585Z" fill="#ffffff"/>
<path d="M1529.56 90.4096C1558.96 90.4096 1581.92 97.6896 1598.44 112.25C1614.96 126.81 1623.22 147.53 1623.22 174.41V326.87H1567.78L1552.24 296.21H1550.56C1544.12 304.33 1537.4 311.05 1530.4 316.37C1523.68 321.41 1515.84 325.05 1506.88 327.29C1497.92 329.81 1487 331.07 1474.12 331.07C1460.68 331.07 1448.64 328.41 1438 323.09C1427.36 317.49 1418.96 309.23 1412.8 298.31C1406.64 287.11 1403.56 272.97 1403.56 255.89C1403.56 230.97 1412.1 212.49 1429.18 200.45C1446.54 188.41 1471.6 181.69 1504.36 180.29L1543 179.03V175.67C1543 165.31 1540.48 158.03 1535.44 153.83C1530.4 149.35 1523.54 147.11 1514.86 147.11C1505.62 147.11 1495.4 148.79 1484.2 152.15C1473 155.23 1461.66 159.29 1450.18 164.33L1427.08 111.41C1440.52 104.41 1455.64 99.2296 1472.44 95.8696C1489.52 92.2296 1508.56 90.4096 1529.56 90.4096ZM1524.94 223.97C1510.38 224.53 1500.02 227.19 1493.86 231.95C1487.98 236.43 1485.04 242.87 1485.04 251.27C1485.04 259.11 1487.14 264.99 1491.34 268.91C1495.54 272.55 1501.14 274.37 1508.14 274.37C1517.94 274.37 1526.2 271.29 1532.92 265.13C1539.92 258.97 1543.42 250.99 1543.42 241.19V223.13L1524.94 223.97Z" fill="#ffffff"/>
<path d="M1745.46 326.87H1665.24V7.66957H1745.46V326.87Z" fill="#ffffff"/>
</g>
<defs>
<clipPath id="clip0_262_2016">
<rect width="1746" height="332" fill="white"/>
</clipPath>
</defs>
</svg>
