<svg width="500" height="500" viewBox="0 0 500 500" fill="none" xmlns="http://www.w3.org/2000/svg">
<path d="M250 9.87012L413.782 64.4424L250 134.725L86.2188 64.4424L250 9.87012Z" fill="#0094FF"/>
<path d="M250 9.87012L413.782 64.4424L250 134.725L86.2188 64.4424L250 9.87012Z" fill="white" fill-opacity="0.4"/>
<path d="M413.782 64.4424L250 134.725V340.576L413.782 64.4424Z" fill="#0094FF"/>
<path d="M413.782 64.4424L250 134.725V340.576L413.782 64.4424Z" fill="black" fill-opacity="0.2"/>
<path d="M250 134.725L86.2188 64.4424L250 340.576V134.725Z" fill="#0094FF"/>
<path d="M250.002 357.058L312.262 379.803L250.002 406.52L187.742 379.803L250.002 357.058Z" fill="#0094FF"/>
<path d="M250.002 357.058L312.262 379.803L250.002 406.52L187.742 379.803L250.002 357.058Z" fill="white" fill-opacity="0.4"/>
<path d="M312.262 379.803L250.002 406.52V490.13L312.262 463.413V379.803Z" fill="#0094FF"/>
<path d="M312.262 379.803L250.002 406.52V490.13L312.262 463.413V379.803Z" fill="black" fill-opacity="0.2"/>
<path d="M250.002 406.52L187.742 379.803V463.413L250.002 490.13V406.52Z" fill="#0094FF"/>
</svg>
