<svg width="2186" height="481" viewBox="0 0 2186 481" fill="none" xmlns="http://www.w3.org/2000/svg">
<g clip-path="url(#clip0_262_2009)">
<path d="M520.222 414.87H440.422V114.99H617.662V180.09H520.222V237.21H610.102V302.31H520.222V414.87Z" fill="#ffffff"/>
<path d="M763.008 178.41C792.408 178.41 815.368 185.69 831.888 200.25C848.408 214.81 856.668 235.53 856.668 262.41V414.87H801.228L785.688 384.21H784.008C777.568 392.33 770.848 399.05 763.848 404.37C757.128 409.41 749.288 413.05 740.328 415.29C731.368 417.81 720.448 419.07 707.568 419.07C694.128 419.07 682.088 416.41 671.448 411.09C660.808 405.49 652.408 397.23 646.248 386.31C640.088 375.11 637.008 360.97 637.008 343.89C637.008 318.97 645.548 300.49 662.628 288.45C679.988 276.41 705.048 269.69 737.808 268.29L776.448 267.03V263.67C776.448 253.31 773.928 246.03 768.888 241.83C763.848 237.35 756.988 235.11 748.308 235.11C739.068 235.11 728.848 236.79 717.648 240.15C706.448 243.23 695.108 247.29 683.628 252.33L660.528 199.41C673.968 192.41 689.088 187.23 705.888 183.87C722.968 180.23 742.008 178.41 763.008 178.41ZM758.388 311.97C743.828 312.53 733.468 315.19 727.308 319.95C721.428 324.43 718.488 330.87 718.488 339.27C718.488 347.11 720.588 352.99 724.788 356.91C728.988 360.55 734.588 362.37 741.588 362.37C751.388 362.37 759.648 359.29 766.368 353.13C773.368 346.97 776.868 338.99 776.868 329.19V311.13L758.388 311.97Z" fill="#ffffff"/>
<path d="M1004.53 419.07C981.008 419.07 960.568 414.87 943.208 406.47C925.848 398.07 912.408 385.05 902.888 367.41C893.368 349.77 888.608 327.23 888.608 299.79C888.608 271.51 893.928 248.55 904.568 230.91C915.208 212.99 929.628 199.83 947.828 191.43C966.308 182.75 987.308 178.41 1010.83 178.41C1025.11 178.41 1038.55 179.95 1051.15 183.03C1064.03 186.11 1075.93 190.45 1086.85 196.05L1063.33 255.27C1053.81 251.07 1044.85 247.71 1036.45 245.19C1028.33 242.67 1019.79 241.41 1010.83 241.41C1002.71 241.41 995.568 243.51 989.408 247.71C983.248 251.91 978.488 258.35 975.128 267.03C971.768 275.43 970.088 286.21 970.088 299.37C970.088 312.81 971.768 323.59 975.128 331.71C978.768 339.83 983.668 345.85 989.828 349.77C995.988 353.41 1003.13 355.23 1011.25 355.23C1022.73 355.23 1034.21 353.41 1045.69 349.77C1057.45 346.13 1068.51 341.09 1078.87 334.65V398.49C1069.35 404.65 1058.57 409.69 1046.53 413.61C1034.49 417.25 1020.49 419.07 1004.53 419.07Z" fill="#ffffff"/>
<path d="M1226.31 355.65C1233.59 355.65 1240.17 354.95 1246.05 353.55C1252.21 351.87 1258.51 349.91 1264.95 347.67V406.05C1256.27 409.69 1247.03 412.77 1237.23 415.29C1227.43 417.81 1214.97 419.07 1199.85 419.07C1184.73 419.07 1171.43 416.69 1159.95 411.93C1148.75 407.17 1139.93 399.05 1133.49 387.57C1127.05 375.81 1123.83 359.43 1123.83 338.43V242.67H1095.69V209.91L1131.39 184.71L1151.97 135.99H1204.47V182.61H1261.59V242.67H1204.47V332.97C1204.47 340.53 1206.29 346.27 1209.93 350.19C1213.85 353.83 1219.31 355.65 1226.31 355.65Z" fill="#ffffff"/>
<path d="M1514.84 298.11C1514.84 317.43 1512.18 334.65 1506.86 349.77C1501.54 364.89 1493.84 377.63 1483.76 387.99C1473.68 398.07 1461.5 405.77 1447.22 411.09C1432.94 416.41 1416.7 419.07 1398.5 419.07C1381.7 419.07 1366.16 416.41 1351.88 411.09C1337.88 405.77 1325.7 398.07 1315.34 387.99C1305.26 377.63 1297.28 364.89 1291.4 349.77C1285.8 334.65 1283 317.43 1283 298.11C1283 272.35 1287.62 250.65 1296.86 233.01C1306.38 215.09 1319.82 201.51 1337.18 192.27C1354.54 183.03 1375.4 178.41 1399.76 178.41C1422.16 178.41 1441.9 183.03 1458.98 192.27C1476.34 201.51 1489.92 215.09 1499.72 233.01C1509.8 250.65 1514.84 272.35 1514.84 298.11ZM1364.48 298.11C1364.48 311.27 1365.6 322.47 1367.84 331.71C1370.08 340.95 1373.72 347.95 1378.76 352.71C1384.08 357.19 1390.94 359.43 1399.34 359.43C1407.74 359.43 1414.32 357.19 1419.08 352.71C1424.12 347.95 1427.76 340.95 1430 331.71C1432.24 322.47 1433.36 311.27 1433.36 298.11C1433.36 284.95 1432.24 273.89 1430 264.93C1427.76 255.97 1424.12 249.25 1419.08 244.77C1414.04 240.29 1407.32 238.05 1398.92 238.05C1386.88 238.05 1378.06 243.09 1372.46 253.17C1367.14 263.25 1364.48 278.23 1364.48 298.11Z" fill="#ffffff"/>
<path d="M1688.18 178.41C1692.66 178.41 1697.28 178.69 1702.04 179.25C1706.8 179.81 1710.3 180.37 1712.54 180.93L1705.4 256.53C1702.6 255.97 1699.1 255.41 1694.9 254.85C1690.98 254.29 1685.38 254.01 1678.1 254.01C1673.06 254.01 1667.6 254.57 1661.72 255.69C1656.12 256.53 1650.66 258.49 1645.34 261.57C1640.3 264.65 1636.1 269.27 1632.74 275.43C1629.66 281.59 1628.12 289.99 1628.12 300.63V414.87H1547.9V182.61H1607.54L1620.14 219.57H1623.92C1628.12 212.01 1633.58 205.15 1640.3 198.99C1647.02 192.55 1654.44 187.51 1662.56 183.87C1670.96 180.23 1679.5 178.41 1688.18 178.41Z" fill="#ffffff"/>
<path d="M1812.81 182.61V414.87H1732.59V182.61H1812.81ZM1772.91 88.9496C1784.39 88.9496 1794.33 91.3296 1802.73 96.0896C1811.41 100.85 1815.75 110.37 1815.75 124.65C1815.75 138.37 1811.41 147.75 1802.73 152.79C1794.33 157.55 1784.39 159.93 1772.91 159.93C1761.15 159.93 1751.07 157.55 1742.67 152.79C1734.55 147.75 1730.49 138.37 1730.49 124.65C1730.49 110.37 1734.55 100.85 1742.67 96.0896C1751.07 91.3296 1761.15 88.9496 1772.91 88.9496Z" fill="#ffffff"/>
<path d="M1969.56 178.41C1998.96 178.41 2021.92 185.69 2038.44 200.25C2054.96 214.81 2063.22 235.53 2063.22 262.41V414.87H2007.78L1992.24 384.21H1990.56C1984.12 392.33 1977.4 399.05 1970.4 404.37C1963.68 409.41 1955.84 413.05 1946.88 415.29C1937.92 417.81 1927 419.07 1914.12 419.07C1900.68 419.07 1888.64 416.41 1878 411.09C1867.36 405.49 1858.96 397.23 1852.8 386.31C1846.64 375.11 1843.56 360.97 1843.56 343.89C1843.56 318.97 1852.1 300.49 1869.18 288.45C1886.54 276.41 1911.6 269.69 1944.36 268.29L1983 267.03V263.67C1983 253.31 1980.48 246.03 1975.44 241.83C1970.4 237.35 1963.54 235.11 1954.86 235.11C1945.62 235.11 1935.4 236.79 1924.2 240.15C1913 243.23 1901.66 247.29 1890.18 252.33L1867.08 199.41C1880.52 192.41 1895.64 187.23 1912.44 183.87C1929.52 180.23 1948.56 178.41 1969.56 178.41ZM1964.94 311.97C1950.38 312.53 1940.02 315.19 1933.86 319.95C1927.98 324.43 1925.04 330.87 1925.04 339.27C1925.04 347.11 1927.14 352.99 1931.34 356.91C1935.54 360.55 1941.14 362.37 1948.14 362.37C1957.94 362.37 1966.2 359.29 1972.92 353.13C1979.92 346.97 1983.42 338.99 1983.42 329.19V311.13L1964.94 311.97Z" fill="#ffffff"/>
<path d="M2185.46 414.87H2105.24V95.6696H2185.46V414.87Z" fill="#ffffff"/>
<path d="M164.301 0.276367L328.083 54.8486L164.301 125.131L0.519531 54.8486L164.301 0.276367Z" fill="#0094FF"/>
<path d="M164.301 0.276367L328.083 54.8486L164.301 125.131L0.519531 54.8486L164.301 0.276367Z" fill="white" fill-opacity="0.4"/>
<path d="M328.083 54.8486L164.301 125.131V330.982L328.083 54.8486Z" fill="#0094FF"/>
<path d="M328.083 54.8486L164.301 125.131V330.982L328.083 54.8486Z" fill="black" fill-opacity="0.2"/>
<path d="M164.301 125.131L0.519531 54.8486L164.301 330.982V125.131Z" fill="#0094FF"/>
<path d="M164.303 347.464L226.563 370.209L164.303 396.926L102.043 370.209L164.303 347.464Z" fill="#0094FF"/>
<path d="M164.303 347.464L226.563 370.209L164.303 396.926L102.043 370.209L164.303 347.464Z" fill="white" fill-opacity="0.4"/>
<path d="M226.563 370.209L164.303 396.926V480.536L226.563 453.819V370.209Z" fill="#0094FF"/>
<path d="M226.563 370.209L164.303 396.926V480.536L226.563 453.819V370.209Z" fill="black" fill-opacity="0.2"/>
<path d="M164.303 396.926L102.043 370.209V453.819L164.303 480.536V396.926Z" fill="#0094FF"/>
</g>
<defs>
<clipPath id="clip0_262_2009">
<rect width="2186" height="481" fill="white"/>
</clipPath>
</defs>
</svg>
